<svg xmlns="http://www.w3.org/2000/svg" viewBox="0 0 1200 420">
<defs>
  <linearGradient id="sky" x1="0" y1="0" x2="0" y2="1"><stop stop-color="#0a0b08"/><stop offset=".55" stop-color="#080907"/><stop offset="1" stop-color="#020303"/></linearGradient>
  <radialGradient id="halo"><stop stop-color="#f3cc67" stop-opacity=".58"/><stop offset=".38" stop-color="#c89434" stop-opacity=".17"/><stop offset="1" stop-color="#c89434" stop-opacity="0"/></radialGradient>
  <linearGradient id="ridge" x1="0" y1="0" x2="1" y2="1"><stop stop-color="#191812"/><stop offset=".45" stop-color="#080908"/><stop offset="1" stop-color="#020303"/></linearGradient>
  <filter id="blur"><feGaussianBlur stdDeviation="24"/></filter>
</defs>
<rect width="1200" height="420" fill="url(#sky)"/>
<ellipse cx="600" cy="184" rx="300" ry="220" fill="url(#halo)" filter="url(#blur)"/>
<circle cx="600" cy="178" r="140" fill="#060706" stroke="#c89b43" stroke-width="2" opacity=".95"/>
<circle cx="600" cy="178" r="171" fill="none" stroke="#d5ad55" stroke-opacity=".25"/>
<path d="M0 420V201l72-54 58 83 67-49 61 91 70-60 84 90 43-35 57 70v83z" fill="url(#ridge)"/>
<path d="M1200 420V184l-80-63-69 89-74-56-58 92-83-65-76 100-61-42-68 96v85z" fill="url(#ridge)"/>
<path d="M0 372c183-25 317-10 430 5 80 11 149 17 170 17 23 0 98-8 178-19 119-17 247-25 422-5v50H0z" fill="#020303"/>
<path d="M75 332l87-74 57 55 77-91 79 98M1125 326l-83-71-59 58-79-92-75 96" fill="none" stroke="#d1a74c" stroke-opacity=".12"/>
</svg>